<svg width="16" height="16" viewBox="0 0 16 16" fill="none" xmlns="http://www.w3.org/2000/svg">
<path d="M7.99984 7.99967C9.84079 7.99967 11.3332 6.50729 11.3332 4.66634C11.3332 2.82539 9.84079 1.33301 7.99984 1.33301C6.15889 1.33301 4.6665 2.82539 4.6665 4.66634C4.6665 6.50729 6.15889 7.99967 7.99984 7.99967Z" fill="white"/>
<path opacity="0.4" d="M7.99996 9.66699C4.65996 9.66699 1.93994 11.907 1.93994 14.667C1.93994 14.8537 2.08661 15.0003 2.27327 15.0003H13.7266C13.9133 15.0003 14.06 14.8537 14.06 14.667C14.06 11.907 11.34 9.66699 7.99996 9.66699Z" fill="white"/>
<path d="M14.286 9.82721C13.686 9.22721 13.2127 9.42054 12.8061 9.82721L10.446 12.1872C10.3527 12.2806 10.266 12.4539 10.246 12.5805L10.1194 13.4805C10.0727 13.8072 10.2994 14.0339 10.626 13.9872L11.526 13.8605C11.6527 13.8405 11.8327 13.7539 11.9194 13.6605L14.2794 11.3006C14.6927 10.9006 14.886 10.4272 14.286 9.82721Z" fill="white"/>
</svg>
