<svg width="44" height="44" viewBox="0 0 44 44" fill="none" xmlns="http://www.w3.org/2000/svg">
<rect x="0.5" y="0.5" width="43" height="43" rx="21.5" stroke="black" stroke-opacity="0.1"/>
<rect width="24" height="24" transform="translate(10 10)" fill="white"/>
<path fill-rule="evenodd" clip-rule="evenodd" d="M33.04 22.2615C33.04 21.446 32.9668 20.6619 32.8309 19.9092H22V24.3576H28.1891C27.9225 25.7951 27.1123 27.013 25.8943 27.8285V30.714H29.6109C31.7855 28.7119 33.04 25.7637 33.04 22.2615Z" fill="#4285F4"/>
<path fill-rule="evenodd" clip-rule="evenodd" d="M21.9995 33.4996C25.1045 33.4996 27.7077 32.4698 29.6104 30.7134L25.8938 27.828C24.864 28.518 23.5467 28.9257 21.9995 28.9257C19.0042 28.9257 16.469 26.9028 15.5647 24.1846H11.7227V27.1641C13.6149 30.9225 17.504 33.4996 21.9995 33.4996Z" fill="#34A853"/>
<path fill-rule="evenodd" clip-rule="evenodd" d="M15.5652 24.1855C15.3352 23.4955 15.2045 22.7584 15.2045 22.0005C15.2045 21.2425 15.3352 20.5055 15.5652 19.8155V16.8359H11.7232C10.9443 18.3884 10.5 20.1448 10.5 22.0005C10.5 23.8562 10.9443 25.6125 11.7232 27.165L15.5652 24.1855Z" fill="#FBBC05"/>
<path fill-rule="evenodd" clip-rule="evenodd" d="M21.9995 15.0739C23.6879 15.0739 25.2038 15.6541 26.3956 16.7936L29.694 13.4952C27.7024 11.6395 25.0992 10.5 21.9995 10.5C17.504 10.5 13.6149 13.077 11.7227 16.8355L15.5647 19.815C16.469 17.0968 19.0042 15.0739 21.9995 15.0739Z" fill="#EA4335"/>
</svg>
