<svg width="38" height="43" viewBox="0 0 38 43" fill="none" xmlns="http://www.w3.org/2000/svg">
<path opacity="0.4" d="M27.0402 6.81969L21.2802 2.78969C19.7102 1.68969 17.3002 1.74969 15.7902 2.91969L10.7802 6.82969C9.78023 7.60969 8.99023 9.20969 8.99023 10.4697V17.3697C8.99023 19.9197 11.0602 21.9997 13.6102 21.9997H24.3902C26.9402 21.9997 29.0102 19.9297 29.0102 17.3797V10.5997C29.0102 9.24969 28.1402 7.58969 27.0402 6.81969Z" fill="#FF8FA9"/>
<path d="M19 18.75C18.59 18.75 18.25 18.41 18.25 18V15C18.25 14.59 18.59 14.25 19 14.25C19.41 14.25 19.75 14.59 19.75 15V18C19.75 18.41 19.41 18.75 19 18.75Z" fill="#FF8FA9"/>
<path d="M1.001 40V30.913H2.977V34.384H7.124V30.913H9.113V40H7.124V36.217H2.977V40H1.001ZM14.2132 40.169C12.1852 40.169 10.5732 38.583 10.5732 36.633C10.5732 34.683 12.1852 33.097 14.2132 33.097C16.2542 33.097 17.8662 34.683 17.8662 36.633C17.8662 38.583 16.2542 40.169 14.2132 40.169ZM14.2132 38.375C15.1622 38.375 15.9032 37.686 15.9032 36.633C15.9032 35.593 15.1622 34.904 14.2132 34.904C13.2642 34.904 12.5362 35.593 12.5362 36.633C12.5362 37.673 13.2642 38.375 14.2132 38.375ZM18.9854 40V33.253H20.9484V34.098C21.6244 33.253 22.3004 33.097 22.8854 33.097C23.7174 33.097 24.4844 33.526 24.7444 34.371C25.2514 33.591 25.9014 33.097 26.9934 33.097C28.1764 33.097 29.3594 33.838 29.3594 35.853V40H27.4094V36.529C27.4094 35.775 27.3184 34.917 26.4344 34.917C25.6544 34.917 25.1604 35.541 25.1604 36.62V40H23.1974V36.425C23.1974 35.684 23.0934 34.917 22.2354 34.917C21.4554 34.917 20.9484 35.567 20.9484 36.62L20.9354 40H18.9854ZM34.0036 40.169C32.3266 40.169 30.4286 39.077 30.4286 36.672C30.4286 34.592 32.0276 33.11 33.8996 33.11C35.7846 33.11 37.4356 34.527 37.2666 37.205L32.3786 37.218C32.4176 37.894 32.9766 38.544 33.9906 38.544C34.9006 38.544 35.4596 38.18 35.8496 37.738L37.0066 38.83C36.4736 39.48 35.5376 40.169 34.0036 40.169ZM32.3786 35.996H35.3166C35.3166 35.671 35.1606 34.605 33.8736 34.605C32.5866 34.605 32.3786 35.684 32.3786 35.996Z" fill="#FF8FA9"/>
</svg>
