<svg width="38" height="43" viewBox="0 0 38 43" fill="none" xmlns="http://www.w3.org/2000/svg">
<path d="M24.79 22.75H13.21C10.47 22.75 8.25 20.52 8.25 17.78V10.37C8.25 9.00997 9.09 7.29997 10.17 6.45997L15.56 2.25997C17.18 0.999974 19.77 0.939974 21.45 2.11997L27.63 6.44997C28.82 7.27997 29.75 9.05997 29.75 10.51V17.79C29.75 20.52 27.53 22.75 24.79 22.75ZM16.48 3.43997L11.09 7.63997C10.38 8.19997 9.75 9.46997 9.75 10.37V17.78C9.75 19.69 11.3 21.25 13.21 21.25H24.79C26.7 21.25 28.25 19.7 28.25 17.79V10.51C28.25 9.54997 27.56 8.21997 26.77 7.67997L20.59 3.34997C19.45 2.54997 17.57 2.58997 16.48 3.43997Z" fill="#646668"/>
<path d="M19 18.75C18.59 18.75 18.25 18.41 18.25 18V15C18.25 14.59 18.59 14.25 19 14.25C19.41 14.25 19.75 14.59 19.75 15V18C19.75 18.41 19.41 18.75 19 18.75Z" fill="#646668"/>
<path d="M1.196 40V30.913H2.392V34.644H7.696V30.913H8.905V40H7.696V35.814H2.392V40H1.196ZM14.0345 40.156C12.1105 40.156 10.5895 38.596 10.5895 36.672C10.5895 34.748 12.1105 33.188 14.0345 33.188C15.9585 33.188 17.4795 34.748 17.4795 36.672C17.4795 38.596 15.9585 40.156 14.0345 40.156ZM14.0345 39.116C15.2955 39.116 16.2705 38.141 16.2705 36.672C16.2705 35.203 15.2955 34.228 14.0345 34.228C12.7735 34.228 11.7985 35.203 11.7985 36.672C11.7985 38.128 12.7735 39.116 14.0345 39.116ZM19.1051 40V33.357H20.2881V34.371C20.5221 33.864 21.2631 33.188 22.2771 33.188C23.0831 33.188 23.9411 33.539 24.3831 34.475C24.3831 34.475 24.9681 33.188 26.6451 33.188C27.5551 33.188 28.9851 33.656 28.9851 35.97V40H27.8021V35.97C27.8021 34.995 27.4641 34.319 26.4631 34.319C25.4881 34.319 24.6301 34.956 24.6301 36.412V40H23.4471V35.97C23.4471 34.995 23.0961 34.319 22.0951 34.319C21.1201 34.319 20.2881 34.956 20.2881 36.412V40H19.1051ZM33.8513 40.169C32.3303 40.169 30.4323 39.077 30.4323 36.672C30.4323 34.592 31.9143 33.201 33.7213 33.201C35.4763 33.201 36.9453 34.462 36.8933 36.997H31.6283C31.6283 38.414 32.8373 39.103 33.8383 39.103C35.1253 39.103 35.6323 38.479 35.9703 38.089L36.7373 38.765C36.2043 39.467 35.3593 40.169 33.8513 40.169ZM31.6413 36.061H35.7103C35.7103 36.061 35.6453 34.241 33.7083 34.241C31.7843 34.241 31.6413 36.061 31.6413 36.061Z" fill="#646668"/>
</svg>
