<svg width="32" height="43" viewBox="0 0 32 43" fill="none" xmlns="http://www.w3.org/2000/svg">
<path d="M13 22H19C24 22 26 20 26 15V9C26 4 24 2 19 2H13C8 2 6 4 6 9V15C6 20 8 22 13 22Z" stroke="#646668" stroke-width="1.5" stroke-linecap="round" stroke-linejoin="round"/>
<path d="M19.9965 12H20.0054" stroke="#646668" stroke-width="2" stroke-linecap="round" stroke-linejoin="round"/>
<path d="M15.9945 12H16.0035" stroke="#646668" stroke-width="2" stroke-linecap="round" stroke-linejoin="round"/>
<path d="M11.9945 12H12.0035" stroke="#646668" stroke-width="2" stroke-linecap="round" stroke-linejoin="round"/>
<path d="M15.4285 30.9H16.5335V40H15.3245V33.123L12.2435 37.426L9.13651 33.123V40H7.96651V30.9H9.03251L12.2175 35.385L15.4285 30.9ZM18.8576 42.834L20.8206 38.869L18.0776 33.357H19.4296L21.4836 37.608L23.5636 33.357H24.8506L20.1446 42.834H18.8576Z" fill="#646668"/>
</svg>
