<svg width="34" height="43" viewBox="0 0 34 43" fill="none" xmlns="http://www.w3.org/2000/svg">
<path opacity="0.4" d="M20.69 2H12.31C8.67 2 6.5 4.17 6.5 7.81V16.18C6.5 19.83 8.67 22 12.31 22H20.68C24.32 22 26.49 19.83 26.49 16.19V7.81C26.5 4.17 24.33 2 20.69 2Z" fill="#FF8FA9"/>
<path d="M16.5 13C15.94 13 15.5 12.55 15.5 12C15.5 11.45 15.95 11 16.5 11C17.05 11 17.5 11.45 17.5 12C17.5 12.55 17.06 13 16.5 13Z" fill="#FF8FA9"/>
<path d="M20.5 13C19.94 13 19.5 12.55 19.5 12C19.5 11.45 19.95 11 20.5 11C21.05 11 21.5 11.45 21.5 12C21.5 12.55 21.06 13 20.5 13Z" fill="#FF8FA9"/>
<path d="M12.5 13C11.94 13 11.5 12.55 11.5 12C11.5 11.45 11.95 11 12.5 11C13.05 11 13.5 11.45 13.5 12C13.5 12.55 13.06 13 12.5 13Z" fill="#FF8FA9"/>
<path d="M15.7081 30.913H17.5671V40H15.6301V34.176L13.0041 37.816L10.3911 34.163V40H8.45413V30.913H10.2741L13.0041 34.878L15.7081 30.913ZM19.3412 42.821L21.5512 38.544L18.7432 33.253H20.8752L22.6042 36.672L24.2422 33.253H26.3482L21.4212 42.821H19.3412Z" fill="#FF8FA9"/>
</svg>
