<svg width="34" height="43" viewBox="0 0 34 43" fill="none" xmlns="http://www.w3.org/2000/svg">
<path d="M8.00977 11.2197V15.7097C8.00977 20.1997 9.80977 21.9997 14.2998 21.9997H19.6898C24.1798 21.9997 25.9798 20.1997 25.9798 15.7097V11.2197" stroke="#646668" stroke-width="1.5" stroke-linecap="round" stroke-linejoin="round"/>
<path d="M17.0005 12C18.8305 12 20.1805 10.51 20.0005 8.68L19.3405 2H14.6705L14.0005 8.68C13.8205 10.51 15.1705 12 17.0005 12Z" stroke="#646668" stroke-width="1.5" stroke-linecap="round" stroke-linejoin="round"/>
<path d="M23.3108 12C25.3308 12 26.8108 10.36 26.6108 8.35L26.3308 5.6C25.9708 3 24.9708 2 22.3508 2H19.3008L20.0008 9.01C20.1708 10.66 21.6608 12 23.3108 12Z" stroke="#646668" stroke-width="1.5" stroke-linecap="round" stroke-linejoin="round"/>
<path d="M10.6404 12C12.2904 12 13.7804 10.66 13.9404 9.01L14.1604 6.8L14.6404 2H11.5904C8.97037 2 7.97037 3 7.61037 5.6L7.34037 8.35C7.14037 10.36 8.62037 12 10.6404 12Z" stroke="#646668" stroke-width="1.5" stroke-linecap="round" stroke-linejoin="round"/>
<path d="M17 17C15.33 17 14.5 17.83 14.5 19.5V22H19.5V19.5C19.5 17.83 18.67 17 17 17Z" stroke="#646668" stroke-width="1.5" stroke-linecap="round" stroke-linejoin="round"/>
<path d="M5.03066 40.156C2.89866 40.156 1.66366 39.181 1.19566 38.726L1.92366 37.829C2.52166 38.375 3.54866 38.999 5.00466 38.999C6.31766 38.999 7.27966 38.414 7.27966 37.465C7.27966 36.334 5.79766 36.022 5.23866 35.892C4.28966 35.684 3.44466 35.489 2.83366 35.216C1.62466 34.657 1.37766 33.812 1.37766 33.253C1.37766 31.589 3.06766 30.744 4.80966 30.744C6.08366 30.744 7.38366 31.173 8.20266 31.836L7.59166 32.785C7.05866 32.382 6.04466 31.901 4.82266 31.901C3.66566 31.901 2.59966 32.317 2.59966 33.214C2.59966 34.007 3.44466 34.306 4.88766 34.618C6.14866 34.891 8.50166 35.359 8.50166 37.452C8.50166 39.402 6.51266 40.156 5.03066 40.156ZM10.2448 40V30.484H11.4278V34.397C11.7658 33.825 12.4938 33.201 13.6378 33.201C15.2108 33.201 16.2898 34.007 16.2898 36.035V40H15.1068V36.035C15.1068 35.294 14.8728 34.319 13.4818 34.319C12.4418 34.319 11.4278 34.956 11.4278 36.412L11.4148 40H10.2448ZM21.1449 40.156C19.2209 40.156 17.6999 38.596 17.6999 36.672C17.6999 34.748 19.2209 33.188 21.1449 33.188C23.0689 33.188 24.5899 34.748 24.5899 36.672C24.5899 38.596 23.0689 40.156 21.1449 40.156ZM21.1449 39.116C22.4059 39.116 23.3809 38.141 23.3809 36.672C23.3809 35.203 22.4059 34.228 21.1449 34.228C19.8839 34.228 18.9089 35.203 18.9089 36.672C18.9089 38.128 19.8839 39.116 21.1449 39.116ZM26.0885 42.821V33.357H27.2715V34.371C27.3105 34.293 28.0125 33.201 29.5075 33.201C31.4315 33.201 32.7705 34.748 32.7705 36.672C32.7705 38.596 31.4315 40.156 29.5075 40.156C28.2985 40.156 27.3625 39.324 27.2715 38.999V42.821H26.0885ZM29.3905 39.116C30.6905 39.116 31.5745 38.024 31.5745 36.672C31.5745 35.333 30.6775 34.241 29.3905 34.241C28.1165 34.241 27.2065 35.294 27.2065 36.672C27.2065 38.037 28.1035 39.116 29.3905 39.116Z" fill="#646668"/>
</svg>
