<svg width="34" height="43" viewBox="0 0 34 43" fill="none" xmlns="http://www.w3.org/2000/svg">
<path opacity="0.4" d="M26.3709 11.3904V17.3804C26.3709 20.1404 24.1309 22.3804 21.3709 22.3804H12.6309C9.87086 22.3804 7.63086 20.1404 7.63086 17.3804V11.4604C8.39086 12.2804 9.47086 12.7504 10.6409 12.7504C11.9009 12.7504 13.1109 12.1204 13.8709 11.1104C14.5509 12.1204 15.7109 12.7504 17.0009 12.7504C18.2809 12.7504 19.4209 12.1504 20.1109 11.1504C20.8809 12.1404 22.0709 12.7504 23.3109 12.7504C24.5209 12.7504 25.6209 12.2604 26.3709 11.3904Z" fill="#FF8FA9"/>
<path d="M19.9894 1.25H13.9894L13.2494 8.61C13.1894 9.29 13.2894 9.93 13.5394 10.51C14.1194 11.87 15.4794 12.75 16.9994 12.75C18.5394 12.75 19.8694 11.89 20.4694 10.52C20.6494 10.09 20.7594 9.59 20.7694 9.08V8.89L19.9894 1.25Z" fill="#FF8FA9"/>
<path opacity="0.6" d="M27.3598 8.27L27.0698 5.5C26.6498 2.48 25.2798 1.25 22.3498 1.25H18.5098L19.2498 8.75C19.2598 8.85 19.2698 8.96 19.2698 9.15C19.3298 9.67 19.4898 10.15 19.7298 10.58C20.4498 11.9 21.8498 12.75 23.3098 12.75C24.6398 12.75 25.8398 12.16 26.5898 11.12C27.1898 10.32 27.4598 9.31 27.3598 8.27Z" fill="#FF8FA9"/>
<path opacity="0.6" d="M11.5897 1.25C8.64965 1.25 7.28965 2.48 6.85965 5.53L6.58965 8.28C6.48965 9.35 6.77965 10.39 7.40965 11.2C8.16965 12.19 9.33965 12.75 10.6396 12.75C12.0996 12.75 13.4997 11.9 14.2097 10.6C14.4697 10.15 14.6396 9.63 14.6896 9.09L15.4697 1.26H11.5897V1.25Z" fill="#FF8FA9"/>
<path d="M16.3491 16.6602C15.0791 16.7902 14.1191 17.8702 14.1191 19.1502V22.3802H19.8691V19.5002C19.8791 17.4102 18.6491 16.4202 16.3491 16.6602Z" fill="#FF8FA9"/>
<path d="M4.99866 40.169C2.69766 40.169 1.09866 38.973 0.682664 38.505L1.95666 37.114C2.76266 37.829 3.76366 38.323 4.92066 38.323C5.92166 38.323 6.64966 37.998 6.64966 37.374C6.64966 36.711 5.89566 36.464 5.24566 36.308C4.29666 36.087 3.64666 35.983 2.80166 35.632C1.47566 35.073 1.12466 34.124 1.12466 33.331C1.12466 31.641 2.87966 30.77 4.76466 30.77C6.38966 30.77 7.70266 31.329 8.45666 31.94L7.48166 33.37C7.05266 33.071 6.07766 32.538 4.84266 32.538C4.49166 32.538 3.16566 32.538 3.16566 33.409C3.16566 33.955 3.64666 34.215 4.80366 34.475C6.35066 34.813 8.65166 35.268 8.65166 37.465C8.65166 39.402 6.63666 40.169 4.99866 40.169ZM9.99808 40V30.484H11.9611V34.111C12.4291 33.526 13.1701 33.097 13.9371 33.097C15.1981 33.097 16.4331 33.812 16.4331 35.84V40H14.4831V36.425C14.4831 35.671 14.4311 34.93 13.4171 34.93C12.8191 34.93 11.9611 35.372 11.9611 36.672L11.9481 40H9.99808ZM21.1458 40.169C19.1178 40.169 17.5058 38.583 17.5058 36.633C17.5058 34.683 19.1178 33.097 21.1458 33.097C23.1868 33.097 24.7988 34.683 24.7988 36.633C24.7988 38.583 23.1868 40.169 21.1458 40.169ZM21.1458 38.375C22.0948 38.375 22.8358 37.686 22.8358 36.633C22.8358 35.593 22.0948 34.904 21.1458 34.904C20.1968 34.904 19.4688 35.593 19.4688 36.633C19.4688 37.673 20.1968 38.375 21.1458 38.375ZM26.045 42.834V33.266H28.008V34.124C28.476 33.474 29.269 33.11 30.127 33.11C31.674 33.11 33.208 34.462 33.208 36.633C33.208 38.791 31.635 40.169 30.127 40.169C29.009 40.169 28.307 39.61 28.008 39.155V42.834H26.045ZM29.581 38.466C30.517 38.466 31.245 37.738 31.245 36.646C31.245 35.541 30.517 34.813 29.581 34.813C28.658 34.813 27.93 35.541 27.93 36.646C27.93 37.738 28.658 38.466 29.581 38.466Z" fill="#FF8FA9"/>
</svg>
