<svg width="32" height="43" viewBox="0 0 32 43" fill="none" xmlns="http://www.w3.org/2000/svg">
<path d="M26 8.68961C26 9.87961 25.81 10.9796 25.48 11.9996H6.52C6.19 10.9796 6 9.87961 6 8.68961C6 5.59961 8.49 3.09961 11.56 3.09961C13.37 3.09961 14.99 3.97961 16 5.32961C17.01 3.97961 18.63 3.09961 20.44 3.09961C23.51 3.09961 26 5.59961 26 8.68961Z" fill="#FF8FA9"/>
<path opacity="0.4" d="M25.4795 12C23.8995 17 19.0295 19.99 16.6195 20.81C16.2795 20.93 15.7195 20.93 15.3795 20.81C12.9695 19.99 8.09953 17 6.51953 12H25.4795Z" fill="#FF8FA9"/>
<path d="M3.34247 40L0.404469 30.913H2.48447L4.20047 36.724L6.00747 30.913H7.55447L9.45247 36.711L11.0905 30.913H13.1575L10.2195 40H8.65947L6.77447 34.124L4.90247 40H3.34247ZM14.2065 32.096V30.471H16.2085V32.096H14.2065ZM14.2325 40V33.253H16.1825V40H14.2325ZM20.5746 40.169C18.7936 40.169 17.5976 39.22 17.3896 38.96L18.3386 37.634C18.5206 37.803 19.3006 38.531 20.5746 38.531C21.1076 38.531 21.6536 38.44 21.6536 37.985C21.6536 37.751 21.4196 37.53 20.8476 37.4C19.5216 37.101 17.6496 36.698 17.6496 35.073C17.6496 33.955 18.8326 33.11 20.4966 33.11C22.0306 33.11 23.2136 33.864 23.2136 33.864L22.4076 35.307C21.9136 34.982 21.2896 34.709 20.4446 34.709C19.8856 34.709 19.5086 34.839 19.5086 35.138C19.5086 35.736 20.8476 35.723 22.1216 36.308C23.2656 36.828 23.4736 37.504 23.4736 38.115C23.4736 39.493 22.0306 40.169 20.5746 40.169ZM24.7149 40V30.484H26.6779V34.111C27.1459 33.526 27.8869 33.097 28.6539 33.097C29.9149 33.097 31.1499 33.812 31.1499 35.84V40H29.1999V36.425C29.1999 35.671 29.1479 34.93 28.1339 34.93C27.5359 34.93 26.6779 35.372 26.6779 36.672L26.6649 40H24.7149Z" fill="#FF8FA9"/>
</svg>
