<svg width="32" height="43" viewBox="0 0 32 43" fill="none" xmlns="http://www.w3.org/2000/svg">
<path d="M16 21.6496C15.69 21.6496 15.39 21.6096 15.14 21.5196C11.32 20.2096 5.25 15.5596 5.25 8.68961C5.25 5.18961 8.08 2.34961 11.56 2.34961C13.25 2.34961 14.83 3.00961 16 4.18961C17.17 3.00961 18.75 2.34961 20.44 2.34961C23.92 2.34961 26.75 5.19961 26.75 8.68961C26.75 15.5696 20.68 20.2096 16.86 21.5196C16.61 21.6096 16.31 21.6496 16 21.6496ZM11.56 3.84961C8.91 3.84961 6.75 6.01961 6.75 8.68961C6.75 15.5196 13.32 19.3196 15.63 20.1096C15.81 20.1696 16.2 20.1696 16.38 20.1096C18.68 19.3196 25.26 15.5296 25.26 8.68961C25.26 6.01961 23.1 3.84961 20.45 3.84961C18.93 3.84961 17.52 4.55961 16.61 5.78961C16.33 6.16961 15.69 6.16961 15.41 5.78961C14.48 4.54961 13.08 3.84961 11.56 3.84961Z" fill="#646668"/>
<path d="M3.73425 40L0.796246 30.913H2.09625L4.26725 38.05L6.54225 30.913H7.55625L9.85725 38.024L12.0542 30.913H13.3022L10.3772 40H9.36325L7.04925 32.85L4.74825 40H3.73425ZM14.4846 31.914V30.471H15.7196V31.914H14.4846ZM14.4976 40V33.357H15.6806V40H14.4976ZM20.3276 40.156C18.5336 40.156 17.5846 39.22 17.3376 38.921L17.9746 38.154C18.1566 38.323 19.0146 39.155 20.2756 39.155C21.6276 39.155 21.9006 38.583 21.9006 38.18C21.9006 37.621 21.4846 37.413 20.6786 37.179C19.5996 36.867 17.5976 36.607 17.5976 35.086C17.5976 33.994 18.5726 33.188 20.2496 33.188C21.7836 33.188 22.6936 33.994 22.6936 33.994L22.1606 34.8C21.8226 34.592 21.2116 34.176 20.1716 34.176C19.1446 34.176 18.7286 34.553 18.7286 35.034C18.7286 35.866 20.1716 35.944 21.1466 36.256C22.6416 36.737 23.0446 37.439 23.0446 38.128C23.0446 39.519 21.7186 40.156 20.3276 40.156ZM24.7267 40V30.484H25.9097V34.397C26.2477 33.825 26.9757 33.201 28.1197 33.201C29.6927 33.201 30.7717 34.007 30.7717 36.035V40H29.5887V36.035C29.5887 35.294 29.3547 34.319 27.9637 34.319C26.9237 34.319 25.9097 34.956 25.9097 36.412L25.8967 40H24.7267Z" fill="#646668"/>
</svg>
